<?xml version="1.0" encoding="UTF-8"?>
<svg version="1.1" xmlns="http://www.w3.org/2000/svg" width="1080" height="1080">
<path d="M0 0 C71.61 0 143.22 0 217 0 C217 23.76 217 47.52 217 72 C240.76 72 264.52 72 289 72 C289 95.76 289 119.52 289 144 C336.19 144 383.38 144 432 144 C432 120.24 432 96.48 432 72 C455.76 72 479.52 72 504 72 C504 48.24 504 24.48 504 0 C575.61 0 647.22 0 721 0 C721 23.76 721 47.52 721 72 C744.76 72 768.52 72 793 72 C793 95.76 793 119.52 793 144 C816.76 144 840.52 144 865 144 C865 239.04 865 334.08 865 432 C841.24 432 817.48 432 793 432 C793 455.76 793 479.52 793 504 C769.24 504 745.48 504 721 504 C721 527.76 721 551.52 721 576 C697.24 576 673.48 576 649 576 C649 599.76 649 623.52 649 648 C625.24 648 601.48 648 577 648 C577 671.76 577 695.52 577 720 C553.24 720 529.48 720 505 720 C505 743.76 505 767.52 505 792 C481.24 792 457.48 792 433 792 C433 815.76 433 839.52 433 864 C385.15 864 337.3 864 288 864 C288 840.24 288 816.48 288 792 C264.24 792 240.48 792 216 792 C216 768.24 216 744.48 216 720 C192.24 720 168.48 720 144 720 C144 696.24 144 672.48 144 648 C120.24 648 96.48 648 72 648 C72 624.24 72 600.48 72 576 C48.24 576 24.48 576 0 576 C0 552.24 0 528.48 0 504 C-23.76 504 -47.52 504 -72 504 C-72 480.24 -72 456.48 -72 432 C-95.76 432 -119.52 432 -144 432 C-144 336.96 -144 241.92 -144 144 C-120.24 144 -96.48 144 -72 144 C-72 120.24 -72 96.48 -72 72 C-48.24 72 -24.48 72 0 72 C0 48.24 0 24.48 0 0 Z " fill="#E62342" transform="translate(180,108)"/>
<path d="M0 0 C34.32 0 68.64 0 104 0 C104 51.48 104 102.96 104 156 C121.16 156 138.32 156 156 156 C156 138.84 156 121.68 156 104 C173.16 104 190.32 104 208 104 C208 86.84 208 69.68 208 52 C225.16 52 242.32 52 260 52 C260 34.84 260 17.68 260 0 C294.65 0 329.3 0 365 0 C365 17.16 365 34.32 365 52 C347.51 52 330.02 52 312 52 C312 69.16 312 86.32 312 104 C294.84 104 277.68 104 260 104 C260 121.16 260 138.32 260 156 C242.84 156 225.68 156 208 156 C208 173.16 208 190.32 208 208 C225.16 208 242.32 208 260 208 C260 225.16 260 242.32 260 260 C277.49 260 294.98 260 313 260 C313 277.16 313 294.32 313 312 C330.16 312 347.32 312 365 312 C365.0309375 324.8390625 365.0309375 324.8390625 365.0625 337.9375 C365.071604 340.64316162 365.08070801 343.34882324 365.09008789 346.13647461 C365.09300685 348.26676382 365.09555545 350.39705358 365.09765625 352.52734375 C365.10277222 353.64500122 365.10788818 354.76265869 365.11315918 355.91418457 C365.11328003 356.96980591 365.11340088 358.02542725 365.11352539 359.11303711 C365.115746 360.03459091 365.11796661 360.95614471 365.12025452 361.90562439 C365 364 365 364 364 365 C361.98771955 365.09674566 359.97198631 365.12187008 357.9573822 365.12025452 C356.64339951 365.12162918 355.32941681 365.12300385 353.97561646 365.12442017 C352.50579812 365.12088054 351.03598 365.11724573 349.56616211 365.11352539 C348.02908836 365.11324353 346.49201447 365.11340123 344.9549408 365.1139679 C340.7691714 365.11425591 336.58343041 365.10835852 332.39766765 365.10139394 C328.02809844 365.09516109 323.65852865 365.09455666 319.28895569 365.09336853 C311.00872953 365.09025501 302.7285165 365.08204135 294.44829613 365.07201904 C285.02402841 365.06085854 275.59976008 365.05534761 266.1754874 365.05032361 C246.7836493 365.03985875 227.39182921 365.02151301 208 365 C208 347.51 208 330.02 208 312 C190.84 312 173.68 312 156 312 C156 294.84 156 277.68 156 260 C138.84 260 121.68 260 104 260 C104 294.32 104 328.64 104 364 C69.68 364 35.36 364 0 364 C0 243.88 0 123.76 0 0 Z " fill="#FEFDFD" transform="translate(369,311)"/>
<path d="M0 0 C23.76 0 47.52 0 72 0 C72 47.52 72 95.04 72 144 C48.24 144 24.48 144 0 144 C0 96.48 0 48.96 0 0 Z " fill="#FEFEFE" transform="translate(108,324)"/>
<path d="M0 0 C23.76 0 47.52 0 72 0 C72 23.76 72 47.52 72 72 C48.24 72 24.48 72 0 72 C0 48.24 0 24.48 0 0 Z " fill="#FEFEFE" transform="translate(180,252)"/>
</svg>
