<svg xmlns="http://www.w3.org/2000/svg" version="1.1" xmlns:xlink="http://www.w3.org/1999/xlink" width="1000" height="1000"><style>
    #light-icon {
      display: inline;
    }
    #dark-icon {
      display: none;
    }

    @media (prefers-color-scheme: dark) {
      #light-icon {
        display: none;
      }
      #dark-icon {
        display: inline;
      }
    }
  </style><g id="light-icon"><svg xmlns="http://www.w3.org/2000/svg" version="1.1" xmlns:xlink="http://www.w3.org/1999/xlink" width="1000" height="1000"><g><g transform="matrix(0.9259259259259259,0,0,0.9259259259259259,0,0)"><svg xmlns="http://www.w3.org/2000/svg" version="1.1" xmlns:xlink="http://www.w3.org/1999/xlink" width="1080" height="1080"><svg xmlns="http://www.w3.org/2000/svg" xmlns:xlink="http://www.w3.org/1999/xlink" width="1080" zoomAndPan="magnify" viewBox="0 0 810 809.999993" height="1080" preserveAspectRatio="xMidYMid meet" version="1.2"><defs><clipPath id="6e0b70351f"><path d="M 27.15625 81 L 783.15625 81 L 783.15625 729 L 27.15625 729 Z M 27.15625 81 "></path></clipPath><clipPath id="ef0e1bed26"><path d="M 0.71875 1 L 275 1 L 275 275 L 0.71875 275 Z M 0.71875 1 "></path></clipPath><clipPath id="16eadb1012"><rect x="0" width="314" y="0" height="314"></rect></clipPath></defs><g id="c60f159602"><g clip-rule="nonzero" clip-path="url(#6e0b70351f)"><path style=" stroke:none;fill-rule:nonzero;fill:#000000;fill-opacity:1;" d="M 729.15625 189.089844 L 729.15625 135.113281 L 675.15625 135.113281 L 675.15625 81.136719 L 513.15625 81.136719 L 513.15625 135.113281 L 459.15625 135.113281 L 459.15625 189.089844 L 351.15625 189.089844 L 351.15625 135.113281 L 297.15625 135.113281 L 297.15625 81.136719 L 135.15625 81.136719 L 135.15625 135.113281 L 81.15625 135.113281 L 81.15625 189.089844 L 27.15625 189.089844 L 27.15625 405 L 81.15625 405 L 81.15625 458.976562 L 135.15625 458.976562 L 135.15625 512.953125 L 189.15625 512.953125 L 189.15625 566.933594 L 243.15625 566.933594 L 243.15625 620.910156 L 297.15625 620.910156 L 297.15625 674.886719 L 351.15625 674.886719 L 351.15625 728.863281 L 459.15625 728.863281 L 459.15625 674.886719 L 513.15625 674.886719 L 513.15625 620.910156 L 567.15625 620.910156 L 567.15625 566.933594 L 621.15625 566.933594 L 621.15625 512.953125 L 675.15625 512.953125 L 675.15625 458.976562 L 729.15625 458.976562 L 729.15625 405 L 783.15625 405 L 783.15625 189.089844 Z M 729.15625 189.089844 "></path></g><path style=" stroke:none;fill-rule:nonzero;fill:#ffffff;fill-opacity:1;" d="M 135.15625 189.089844 L 189.15625 189.089844 L 189.15625 243.066406 L 135.15625 243.066406 Z M 135.15625 189.089844 "></path><path style=" stroke:none;fill-rule:nonzero;fill:#ffffff;fill-opacity:1;" d="M 81.15625 243.066406 L 135.15625 243.066406 L 135.15625 351.023438 L 81.15625 351.023438 Z M 81.15625 243.066406 "></path><g transform="matrix(1,0,0,1,276,232)"><g clip-path="url(#16eadb1012)"><g clip-rule="nonzero" clip-path="url(#ef0e1bed26)"><g style="fill:#ffffff;fill-opacity:1;"><g transform="translate(0.932158, 313.551624)"><path style="stroke:none" d="M 0 -39.015625 L 0 -312.15625 L 78.03125 -312.15625 L 78.03125 -195.09375 L 117.0625 -195.09375 L 117.0625 -234.109375 L 156.078125 -234.109375 L 156.078125 -273.140625 L 195.09375 -273.140625 L 195.09375 -312.15625 L 273.140625 -312.15625 L 273.140625 -273.140625 L 234.109375 -273.140625 L 234.109375 -234.109375 L 195.09375 -234.109375 L 195.09375 -195.09375 L 156.078125 -195.09375 L 156.078125 -156.078125 L 195.09375 -156.078125 L 195.09375 -117.0625 L 234.109375 -117.0625 L 234.109375 -78.03125 L 273.140625 -78.03125 L 273.140625 -39.015625 L 156.078125 -39.015625 L 156.078125 -78.03125 L 117.0625 -78.03125 L 117.0625 -117.0625 L 78.03125 -117.0625 L 78.03125 -39.015625 Z M 0 -39.015625 "></path></g></g></g></g></g></g></svg></svg></g></g></svg></g><g id="dark-icon"><svg xmlns="http://www.w3.org/2000/svg" version="1.1" xmlns:xlink="http://www.w3.org/1999/xlink" width="1000" height="1000"><g><g transform="matrix(0.9259259259259259,0,0,0.9259259259259259,0,0)"><svg xmlns="http://www.w3.org/2000/svg" version="1.1" xmlns:xlink="http://www.w3.org/1999/xlink" width="1080" height="1080"><svg xmlns="http://www.w3.org/2000/svg" xmlns:xlink="http://www.w3.org/1999/xlink" width="1080" zoomAndPan="magnify" viewBox="0 0 810 809.999993" height="1080" preserveAspectRatio="xMidYMid meet" version="1.2"><defs><clipPath id="1af0112cff"><path d="M 27.15625 81 L 783 81 L 783 729 L 27.15625 729 Z M 27.15625 81 "></path></clipPath><clipPath id="c2e3d7d1ac"><path d="M 0.71875 1 L 275 1 L 275 275 L 0.71875 275 Z M 0.71875 1 "></path></clipPath><clipPath id="fbfeea03eb"><rect x="0" width="314" y="0" height="314"></rect></clipPath></defs><g id="22ff544b85"><g clip-rule="nonzero" clip-path="url(#1af0112cff)"><path style=" stroke:none;fill-rule:nonzero;fill:#ffffff;fill-opacity:1;" d="M 728.863281 189.089844 L 728.863281 135.113281 L 674.886719 135.113281 L 674.886719 81.136719 L 512.953125 81.136719 L 512.953125 135.113281 L 458.976562 135.113281 L 458.976562 189.089844 L 351.023438 189.089844 L 351.023438 135.113281 L 297.042969 135.113281 L 297.042969 81.136719 L 135.113281 81.136719 L 135.113281 135.113281 L 81.136719 135.113281 L 81.136719 189.089844 L 27.15625 189.089844 L 27.15625 405 L 81.136719 405 L 81.136719 458.976562 L 135.113281 458.976562 L 135.113281 512.953125 L 189.089844 512.953125 L 189.089844 566.933594 L 243.066406 566.933594 L 243.066406 620.910156 L 297.042969 620.910156 L 297.042969 674.886719 L 351.023438 674.886719 L 351.023438 728.863281 L 458.976562 728.863281 L 458.976562 674.886719 L 512.953125 674.886719 L 512.953125 620.910156 L 566.929688 620.910156 L 566.929688 566.933594 L 620.910156 566.933594 L 620.910156 512.953125 L 674.886719 512.953125 L 674.886719 458.976562 L 728.863281 458.976562 L 728.863281 405 L 782.839844 405 L 782.839844 189.089844 Z M 728.863281 189.089844 "></path></g><path style=" stroke:none;fill-rule:nonzero;fill:#000000;fill-opacity:1;" d="M 135.113281 189.089844 L 189.089844 189.089844 L 189.089844 243.066406 L 135.113281 243.066406 Z M 135.113281 189.089844 "></path><path style=" stroke:none;fill-rule:nonzero;fill:#000000;fill-opacity:1;" d="M 81.136719 243.066406 L 135.113281 243.066406 L 135.113281 351.023438 L 81.136719 351.023438 Z M 81.136719 243.066406 "></path><g transform="matrix(1,0,0,1,276,232)"><g clip-path="url(#fbfeea03eb)"><g clip-rule="nonzero" clip-path="url(#c2e3d7d1ac)"><g style="fill:#000000;fill-opacity:1;"><g transform="translate(0.932158, 313.551624)"><path style="stroke:none" d="M 0 -39.015625 L 0 -312.15625 L 78.03125 -312.15625 L 78.03125 -195.09375 L 117.0625 -195.09375 L 117.0625 -234.109375 L 156.078125 -234.109375 L 156.078125 -273.140625 L 195.09375 -273.140625 L 195.09375 -312.15625 L 273.140625 -312.15625 L 273.140625 -273.140625 L 234.109375 -273.140625 L 234.109375 -234.109375 L 195.09375 -234.109375 L 195.09375 -195.09375 L 156.078125 -195.09375 L 156.078125 -156.078125 L 195.09375 -156.078125 L 195.09375 -117.0625 L 234.109375 -117.0625 L 234.109375 -78.03125 L 273.140625 -78.03125 L 273.140625 -39.015625 L 156.078125 -39.015625 L 156.078125 -78.03125 L 117.0625 -78.03125 L 117.0625 -117.0625 L 78.03125 -117.0625 L 78.03125 -39.015625 Z M 0 -39.015625 "></path></g></g></g></g></g></g></svg></svg></g></g></svg></g></svg>